orig
---
--- 1.04267 - 1.04533 ---
Note on F2 Velocity 124 Channel 1 at 1.04327
Note on E2 Velocity 118 Channel 1 at 1.04427
Note on D2 Velocity 119 Channel 1 at 1.04529

--- 1.04533 - 1.048 ---

--- 1.05867 - 1.06133 ---
Note on G2 Velocity 119 Channel 1 at 1.0475

--- 1.248 - 1.25067 ---
Note off D2 Velocity 0 Channel 1 at 1.24907

--- 1.256 - 1.25867 ---
Note off E2 Velocity 0 Channel 1 at 1.2573
Note off G2 Velocity 0 Channel 1 at 1.25821

--- 1.25867 - 1.26133 ---
Note off F2 Velocity 0 Channel 1 at 1.26034
--- 1.28 - 1.28267 ---

=========================================

--- 1.41067 - 1.41333 ---
Note on A2 Velocity 120 Channel 1 at 1.41294

--- 1.416 - 1.41867 ---
Note on B2 Velocity 122 Channel 1 at 1.417

--- 1.41867 - 1.42133 ---
Note on G2 Velocity 113 Channel 1 at 1.41873
Note on C3 Velocity 118 Channel 1 at 1.41971

--- 1.528 - 1.53067 ---
Note off G2 Velocity 0 Channel 1 at 1.53034

--- 1.53867 - 1.54133 ---

--- 1.58133 - 1.584 ---
Note off A2 Velocity 0 Channel 1 at 1.58236
Note off C3 Velocity 0 Channel 1 at 1.5833

--- 1.584 - 1.58667 ---
Note off B2 Velocity 0 Channel 1 at 1.58425

--- 1.6 - 1.60267 ---

=========================================

--- 1.73867 - 1.74133 ---
Note on E3 Velocity 119 Channel 1 at 1.741

--- 1.744 - 1.74667 ---
Note on D3 Velocity 124 Channel 1 at 1.74521

--- 1.74667 - 1.74933 ---
Note on C3 Velocity 122 Channel 1 at 1.74808

--- 1.75733 - 1.76 ---
Note off C3 Velocity 0 Channel 1 at 1.75765

--- 1.76 - 1.76267 ---
--- 1.77867 - 1.78133 ---
--- 2.02667 - 2.02933 ---
Note off D3 Velocity 0 Channel 1 at 2.02873

--- 2.032 - 2.03467 ---
Note off E3 Velocity 0 Channel 1 at 2.03459

--- 2.04 - 2.04267 ---

=========================================

--- 2.21867 - 2.22133 ---
Note on E2 Velocity 121 Channel 1 at 2.21994

--- 2.22133 - 2.224 ---
Note on F2 Velocity 124 Channel 1 at 2.22181
Note on G2 Velocity 120 Channel 1 at 2.22285

--- 2.25867 - 2.26133 ---
--- 2.27733 - 2.28 ---
Note off E2 Velocity 0 Channel 1 at 2.27896
--- 2.28 - 2.28267 ---
Note off F2 Velocity 0 Channel 1 at 2.28198

--- 2.28267 - 2.28533 ---
Note off G2 Velocity 0 Channel 1 at 2.28298

--- 2.29867 - 2.30133 ---

=========================================

--- 2.368 - 2.37067 ---
Note on E2 Velocity 118 Channel 1 at 2.36802

--- 2.37067 - 2.37333 ---
Note on F2 Velocity 117 Channel 1 at 2.37146
Note on G2 Velocity 111 Channel 1 at 2.37273

--- 2.37867 - 2.38133 ---
--- 2.44267 - 2.44533 ---
Note off G2 Velocity 0 Channel 1 at 2.44352
Note off F2 Velocity 0 Channel 1 at 2.44448

--- 2.448 - 2.45067 ---
Note off E2 Velocity 0 Channel 1 at 2.44905

--- 2.45867 - 2.46133 ---
=========================================

--- 2.72267 - 2.72533 ---
Note on G2 Velocity 123 Channel 1 at 2.72394
Note on A2 Velocity 125 Channel 1 at 2.72487

--- 2.72533 - 2.728 ---
Note on B2 Velocity 123 Channel 1 at 2.72648

--- 2.73867 - 2.74133 ---
--- 2.832 - 2.83467 ---
Note off G2 Velocity 0 Channel 1 at 2.83361

--- 2.83733 - 2.84 ---
--- 2.84267 - 2.84533 ---
Note off A2 Velocity 0 Channel 1 at 2.84273
Note off B2 Velocity 0 Channel 1 at 2.84369
--- 2.85867 - 2.86133 ---